<svg width="30.000000" height="30.000000" viewBox="0 0 30 30" fill="none" xmlns="http://www.w3.org/2000/svg" xmlns:xlink="http://www.w3.org/1999/xlink">
	<desc>
			Created with Pixso.
	</desc>
	<defs/>
	<path id="Vector" d="M15 0C14.66 0 14.34 0.01 14.01 0.03L14.13 1.9C14.71 1.86 15.28 1.86 15.86 1.9L15.98 0.03C15.65 0.01 15.32 0 15 0L15 0ZM12.07 0.28C11.42 0.41 10.79 0.58 10.17 0.79L10.77 2.56C11.31 2.38 11.87 2.23 12.43 2.12L12.07 0.28L12.07 0.28ZM19.82 0.79C19.2 0.58 18.56 0.41 17.92 0.28L17.56 2.12C18.12 2.23 18.68 2.38 19.22 2.56L19.82 0.79ZM23.33 2.52C22.79 2.16 22.22 1.83 21.63 1.54L20.8 3.22C21.32 3.47 21.81 3.76 22.29 4.08L23.33 2.52ZM8.36 1.54C7.77 1.83 7.2 2.16 6.66 2.52L7.7 4.08C8.18 3.76 8.68 3.47 9.19 3.22L8.36 1.54ZM5.1 3.72C4.61 4.15 4.15 4.61 3.72 5.1L5.13 6.34C5.51 5.91 5.91 5.51 6.34 5.13L5.1 3.72ZM26.27 5.1C25.84 4.61 25.38 4.15 24.89 3.72L23.65 5.13C24.08 5.51 24.49 5.91 24.86 6.34L26.27 5.1ZM28.45 8.36C28.16 7.77 27.83 7.2 27.47 6.66L25.91 7.7C26.23 8.18 26.51 8.67 26.77 9.19L28.45 8.36L28.45 8.36ZM2.52 6.66C2.16 7.2 1.83 7.77 1.54 8.36L3.22 9.19C3.47 8.67 3.76 8.18 4.08 7.7L2.52 6.66ZM0.79 10.17C0.58 10.79 0.41 11.43 0.28 12.07L2.12 12.43C2.23 11.87 2.38 11.31 2.56 10.77L0.79 10.17ZM29.71 12.07C29.58 11.43 29.41 10.79 29.2 10.17L27.43 10.77C27.61 11.31 27.76 11.87 27.87 12.43L29.71 12.07L29.71 12.07ZM0.03 14.01C-0.02 14.67 -0.02 15.32 0.03 15.98L1.9 15.86C1.86 15.28 1.86 14.71 1.9 14.13L0.03 14.01ZM30 15C29.99 14.67 29.98 14.34 29.96 14.01L28.09 14.13C28.13 14.71 28.13 15.28 28.09 15.86L29.96 15.98C29.98 15.65 29.99 15.32 30 15ZM0.28 17.92C0.41 18.57 0.58 19.2 0.79 19.82L2.56 19.22C2.38 18.67 2.23 18.12 2.12 17.56L0.28 17.92L0.28 17.92ZM29.2 19.82C29.41 19.2 29.58 18.57 29.71 17.92L27.87 17.56C27.76 18.12 27.61 18.68 27.43 19.22L29.2 19.82ZM1.54 21.63C1.83 22.22 2.16 22.79 2.52 23.33L4.08 22.29C3.76 21.81 3.47 21.31 3.22 20.8L1.54 21.63L1.54 21.63ZM27.47 23.33C27.83 22.79 28.16 22.22 28.45 21.63L26.77 20.8C26.51 21.32 26.23 21.81 25.91 22.29L27.47 23.33ZM3.72 24.89C4.15 25.38 4.61 25.84 5.1 26.27L6.34 24.86C5.91 24.48 5.5 24.08 5.13 23.65L3.72 24.89ZM24.89 26.27C25.38 25.84 25.84 25.38 26.27 24.89L24.86 23.65C24.49 24.08 24.08 24.49 23.65 24.86L24.89 26.27ZM21.63 28.45C22.22 28.16 22.79 27.83 23.33 27.47L22.29 25.91C21.81 26.23 21.31 26.52 20.8 26.77L21.63 28.45L21.63 28.45ZM6.66 27.47C7.2 27.83 7.77 28.16 8.36 28.45L9.19 26.77C8.68 26.52 8.18 26.23 7.7 25.91L6.66 27.47ZM10.17 29.2C10.79 29.41 11.42 29.58 12.07 29.71L12.43 27.87C11.87 27.76 11.32 27.61 10.77 27.43L10.17 29.2ZM17.92 29.71C18.56 29.58 19.2 29.41 19.82 29.2L19.22 27.43C18.67 27.61 18.12 27.76 17.56 27.87L17.92 29.71L17.92 29.71ZM14.01 29.96C14.67 30.01 15.32 30.01 15.98 29.96L15.86 28.09C15.28 28.13 14.71 28.13 14.13 28.09L14.01 29.96ZM15.93 8.43C15.93 8.18 15.83 7.95 15.66 7.77C15.48 7.59 15.24 7.5 15 7.5C14.75 7.5 14.51 7.59 14.33 7.77C14.16 7.95 14.06 8.18 14.06 8.43L14.06 14.06L8.43 14.06C8.18 14.06 7.95 14.16 7.77 14.33C7.59 14.51 7.5 14.75 7.5 15C7.5 15.24 7.59 15.48 7.77 15.66C7.95 15.83 8.18 15.93 8.43 15.93L14.06 15.93L14.06 21.56C14.06 21.81 14.16 22.04 14.33 22.22C14.51 22.4 14.75 22.5 15 22.5C15.24 22.5 15.48 22.4 15.66 22.22C15.83 22.04 15.93 21.81 15.93 21.56L15.93 15.93L21.56 15.93C21.81 15.93 22.04 15.83 22.22 15.66C22.4 15.48 22.5 15.24 22.5 15C22.5 14.75 22.4 14.51 22.22 14.33C22.04 14.16 21.81 14.06 21.56 14.06L15.93 14.06L15.93 8.43Z" fill="#D42E2E" fill-opacity="1.000000" fill-rule="nonzero"/>
</svg>
