<svg width="29.233398" height="32.708252" viewBox="0 0 29.2334 32.7083" fill="none" xmlns="http://www.w3.org/2000/svg" xmlns:xlink="http://www.w3.org/1999/xlink">
	<desc>
			Created with Pixso.
	</desc>
	<defs/>
	<path id="Vector 895 (Stroke)" d="M8.23 0.46C8.43 0.87 8.27 1.37 7.85 1.57C6.76 2.12 4.19 4.68 5.34 10.42C5.59 11.64 6.48 12.84 7.58 13.85C8.67 14.86 9.86 15.59 10.5 15.9C10.92 16.1 11.09 16.59 10.89 17.01C10.69 17.42 10.19 17.6 9.78 17.4C8.99 17.02 7.67 16.2 6.45 15.08C5.25 13.98 4.05 12.48 3.71 10.75C2.43 4.37 5.25 1.01 7.11 0.08C7.52 -0.12 8.02 0.04 8.23 0.46Z" fill="#DA844B" fill-opacity="1.000000" fill-rule="evenodd"/>
	<path id="Vector 883 (Stroke)" d="M8.27 0.64C8.37 0.85 8.29 1.1 8.08 1.2C6.8 1.85 4.17 4.6 5.35 10.5C5.62 11.85 6.59 13.12 7.72 14.16C8.84 15.19 10.06 15.94 10.74 16.27C10.95 16.37 11.03 16.62 10.93 16.83C10.83 17.04 10.58 17.12 10.38 17.02C9.63 16.66 8.34 15.86 7.15 14.77C5.98 13.69 4.85 12.27 4.53 10.67C3.29 4.45 6.04 1.29 7.71 0.46C7.92 0.35 8.17 0.44 8.27 0.64Z" fill="#BD6B34" fill-opacity="1.000000" fill-rule="evenodd"/>
	<path id="Vector 890 (Stroke)" d="M0.04 12.08C0.2 11.65 0.67 11.42 1.11 11.57C1.45 11.7 2.11 11.86 2.87 11.91C3.62 11.95 4.42 11.88 5.08 11.59C5.51 11.41 6 11.61 6.18 12.03C6.36 12.45 6.16 12.94 5.74 13.13C4.75 13.55 3.67 13.62 2.76 13.57C1.85 13.51 1.04 13.32 0.55 13.15C0.12 12.99 -0.11 12.52 0.04 12.08Z" fill="#DA844B" fill-opacity="1.000000" fill-rule="evenodd"/>
	<path id="Vector 891 (Stroke)" d="M8.59 5.64C9.04 5.77 9.29 6.23 9.17 6.67C8.98 7.37 8.55 8.39 7.87 9.24C7.2 10.09 6.16 10.91 4.77 10.83C4.31 10.8 3.96 10.4 3.99 9.95C4.02 9.49 4.41 9.14 4.87 9.16C5.49 9.2 6.05 8.85 6.57 8.21C7.07 7.57 7.42 6.76 7.57 6.22C7.69 5.78 8.15 5.52 8.59 5.64Z" fill="#DA844B" fill-opacity="1.000000" fill-rule="evenodd"/>
	<path id="Vector 892 (Stroke)" d="M0.82 3.85C1.27 3.77 1.71 4.06 1.79 4.51C1.9 5.07 2.18 5.92 2.66 6.6C3.13 7.28 3.69 7.68 4.38 7.68C4.84 7.68 5.21 8.06 5.21 8.52C5.21 8.98 4.84 9.35 4.38 9.35C2.93 9.35 1.92 8.47 1.29 7.55C0.65 6.63 0.3 5.55 0.16 4.83C0.07 4.38 0.37 3.94 0.82 3.85Z" fill="#DA844B" fill-opacity="1.000000" fill-rule="evenodd"/>
	<path id="Vector 893 (Stroke)" d="M7.73 3.45C8.08 3.76 8.12 4.28 7.81 4.63C7.58 4.9 7.18 5.25 6.67 5.52C6.16 5.8 5.48 6.03 4.73 5.94C4.27 5.89 3.94 5.48 3.99 5.02C4.04 4.57 4.45 4.24 4.91 4.29C5.22 4.32 5.55 4.23 5.88 4.06C6.2 3.88 6.45 3.66 6.56 3.53C6.86 3.19 7.39 3.15 7.73 3.45Z" fill="#DA844B" fill-opacity="1.000000" fill-rule="evenodd"/>
	<path id="Vector 894 (Stroke)" d="M3.54 1C4 1 4.38 1.38 4.38 1.84C4.38 2 4.4 2.3 4.47 2.59C4.55 2.91 4.65 3.1 4.72 3.17C5.05 3.49 5.05 4.02 4.72 4.35C4.4 4.67 3.87 4.67 3.55 4.35C3.15 3.95 2.95 3.4 2.85 2.98C2.75 2.55 2.71 2.12 2.71 1.84C2.71 1.38 3.08 1 3.54 1Z" fill="#DA844B" fill-opacity="1.000000" fill-rule="evenodd"/>
	<path id="Vector 998 (Stroke)" d="M5.45 2.34C5.65 2.44 5.73 2.69 5.62 2.9C5.16 3.77 4.16 6.15 4.45 9.25C4.47 9.48 4.3 9.69 4.07 9.71C3.84 9.73 3.64 9.56 3.62 9.33C3.32 6.02 4.38 3.47 4.89 2.51C4.99 2.31 5.25 2.23 5.45 2.34Z" fill="#FAA973" fill-opacity="1.000000" fill-rule="evenodd"/>
	<path id="Vector 883 (Stroke)" d="M20.48 0.46C20.28 0.87 20.45 1.37 20.86 1.57C21.95 2.12 24.52 4.68 23.37 10.42C23.13 11.64 22.23 12.84 21.13 13.85C20.04 14.86 18.85 15.59 18.21 15.9C17.79 16.1 17.62 16.59 17.82 17.01C18.02 17.42 18.52 17.6 18.93 17.4C19.72 17.02 21.04 16.2 22.26 15.08C23.46 13.98 24.66 12.48 25 10.75C26.28 4.37 23.46 1.01 21.6 0.08C21.19 -0.12 20.69 0.04 20.48 0.46Z" fill="#DA844B" fill-opacity="1.000000" fill-rule="evenodd"/>
	<path id="Vector 895 (Stroke)" d="M21.27 0.64C21.17 0.85 21.25 1.1 21.46 1.2C22.75 1.85 25.38 4.6 24.19 10.5C23.92 11.85 22.95 13.12 21.83 14.16C20.71 15.19 19.48 15.94 18.8 16.27C18.6 16.37 18.51 16.62 18.61 16.83C18.71 17.04 18.96 17.12 19.17 17.02C19.92 16.66 21.21 15.86 22.39 14.77C23.57 13.69 24.69 12.27 25.01 10.67C26.26 4.45 23.5 1.29 21.83 0.46C21.63 0.35 21.38 0.44 21.27 0.64Z" fill="#BD6B34" fill-opacity="1.000000" fill-rule="evenodd"/>
	<path id="Vector 890 (Stroke)" d="M28.67 12.08C28.52 11.65 28.04 11.42 27.61 11.57C27.26 11.7 26.6 11.86 25.85 11.91C25.09 11.95 24.29 11.88 23.63 11.59C23.21 11.41 22.72 11.61 22.53 12.03C22.35 12.45 22.55 12.94 22.97 13.13C23.96 13.55 25.04 13.62 25.95 13.57C26.86 13.51 27.67 13.32 28.16 13.15C28.59 12.99 28.82 12.52 28.67 12.08Z" fill="#DA844B" fill-opacity="1.000000" fill-rule="evenodd"/>
	<path id="Vector 891 (Stroke)" d="M20.12 5.64C19.68 5.77 19.42 6.23 19.54 6.67C19.74 7.37 20.16 8.39 20.84 9.24C21.51 10.09 22.55 10.91 23.94 10.83C24.4 10.8 24.75 10.4 24.72 9.95C24.7 9.49 24.3 9.14 23.84 9.16C23.22 9.2 22.66 8.85 22.15 8.21C21.64 7.57 21.3 6.76 21.15 6.22C21.02 5.78 20.56 5.52 20.12 5.64Z" fill="#DA844B" fill-opacity="1.000000" fill-rule="evenodd"/>
	<path id="Vector 892 (Stroke)" d="M27.89 3.85C27.44 3.77 27 4.06 26.92 4.51C26.81 5.07 26.53 5.92 26.06 6.6C25.58 7.28 25.02 7.68 24.33 7.68C23.87 7.68 23.5 8.06 23.5 8.52C23.5 8.98 23.87 9.35 24.33 9.35C25.78 9.35 26.79 8.47 27.43 7.55C28.06 6.63 28.41 5.55 28.55 4.83C28.64 4.38 28.34 3.94 27.89 3.85Z" fill="#DA844B" fill-opacity="1.000000" fill-rule="evenodd"/>
	<path id="Vector 893 (Stroke)" d="M20.98 3.04C20.63 3.34 20.6 3.87 20.9 4.21C21.13 4.48 21.54 4.83 22.04 5.11C22.55 5.38 23.23 5.61 23.98 5.53C24.44 5.48 24.77 5.06 24.72 4.61C24.67 4.15 24.26 3.82 23.8 3.87C23.49 3.91 23.16 3.81 22.83 3.64C22.51 3.47 22.26 3.24 22.15 3.12C21.85 2.77 21.32 2.73 20.98 3.04Z" fill="#DA844B" fill-opacity="1.000000" fill-rule="evenodd"/>
	<path id="Vector 894 (Stroke)" d="M24.75 0.59C24.29 0.59 23.92 0.96 23.92 1.42C23.92 1.58 23.89 1.88 23.82 2.17C23.75 2.49 23.64 2.68 23.57 2.75C23.25 3.08 23.25 3.61 23.57 3.93C23.9 4.26 24.42 4.26 24.75 3.93C25.15 3.53 25.34 2.98 25.44 2.57C25.55 2.13 25.58 1.7 25.58 1.42C25.58 0.96 25.21 0.59 24.75 0.59Z" fill="#DA844B" fill-opacity="1.000000" fill-rule="evenodd"/>
	<path id="Vector 888" d="M1.86 16.5C5.06 14.37 8.52 15.81 9.85 16.79C11.03 17.74 10.73 18.77 10.44 19.16C6.3 20.34 3 17.88 1.86 16.5Z" fill="#944F21" fill-opacity="1.000000" fill-rule="nonzero"/>
	<path id="Vector 888 (Stroke)" d="M10.36 16.13L10.37 16.14C11.11 16.74 11.47 17.43 11.53 18.11C11.58 18.76 11.36 19.32 11.1 19.66L10.94 19.88L10.67 19.96C6.09 21.27 2.47 18.55 1.22 17.03L0.64 16.32L1.4 15.81C5.02 13.4 8.88 15.04 10.34 16.13L10.36 16.13ZM1.86 16.5C2.02 16.69 2.21 16.9 2.45 17.11C3.92 18.48 6.86 20.18 10.44 19.16C10.73 18.77 11.03 17.74 9.85 16.79C8.62 15.88 5.57 14.59 2.6 16.07C2.35 16.2 2.11 16.34 1.86 16.5Z" fill="#652E0A" fill-opacity="1.000000" fill-rule="evenodd"/>
	<path id="Vector 889" d="M18.57 16.65C21.88 13.69 26.36 15.41 28.18 16.65C27.93 17.19 26.85 18.48 24.48 19.31C22.12 20.14 19.55 19.26 18.57 18.72L18.57 16.65Z" fill="#944F21" fill-opacity="1.000000" fill-rule="nonzero"/>
	<path id="Vector 889 (Stroke)" d="M29.23 16.35L28.94 16.99C28.57 17.79 27.28 19.21 24.76 20.09C23.4 20.57 22.02 20.55 20.87 20.35C19.72 20.15 18.74 19.76 18.17 19.45L17.74 19.21L17.74 16.27L18.01 16.03C19.89 14.35 22.1 14.01 24.03 14.25C25.95 14.48 27.64 15.28 28.64 15.96L29.23 16.35ZM27.79 17.22C27.98 16.99 28.11 16.79 28.18 16.65C26.36 15.41 21.88 13.69 18.57 16.65L18.57 18.72C19.55 19.26 22.12 20.14 24.48 19.31C26.12 18.74 27.14 17.94 27.7 17.33C27.73 17.29 27.76 17.26 27.79 17.22Z" fill="#652E0A" fill-opacity="1.000000" fill-rule="evenodd"/>
	<path id="Vector 977 (Stroke)" d="M26.07 17.06C26.08 16.84 25.9 16.64 25.67 16.63C25.03 16.6 24.01 16.62 22.98 16.76C21.97 16.9 20.88 17.17 20.18 17.69C20 17.82 19.96 18.09 20.1 18.27C20.24 18.45 20.5 18.49 20.68 18.36C21.2 17.97 22.1 17.72 23.09 17.59C24.06 17.45 25.04 17.44 25.63 17.46C25.86 17.47 26.06 17.29 26.07 17.06Z" fill="#BD6B34" fill-opacity="1.000000" fill-rule="evenodd"/>
	<path id="Vector 976 (Stroke)" d="M3.93 16.85C3.97 16.63 4.19 16.47 4.41 16.51C5.04 16.62 6.04 16.85 7.02 17.21C7.97 17.56 8.98 18.05 9.55 18.71C9.71 18.88 9.69 19.14 9.51 19.29C9.34 19.44 9.08 19.43 8.93 19.25C8.5 18.77 7.67 18.33 6.73 17.99C5.81 17.66 4.86 17.43 4.27 17.33C4.05 17.29 3.89 17.08 3.93 16.85Z" fill="#BD6B34" fill-opacity="1.000000" fill-rule="evenodd"/>
	<path id="Vector 890" d="M15.17 12.66C7.06 12.66 7.33 22.17 8.52 24.93C12.51 25.52 20.64 26.43 21.23 25.37C21.97 24.04 24.33 12.66 15.17 12.66Z" fill="#B3642F" fill-opacity="1.000000" fill-rule="nonzero"/>
	<path id="Vector 890 (Stroke)" d="M7.93 25.68L7.75 25.25C7.4 24.44 7.15 23.23 7.08 21.89C7.02 20.54 7.13 18.99 7.56 17.52C7.99 16.05 8.75 14.62 10 13.55C11.27 12.47 12.97 11.82 15.17 11.82C17.65 11.82 19.45 12.6 20.68 13.87C21.9 15.13 22.49 16.78 22.74 18.39C22.98 20 22.9 21.63 22.71 22.94C22.61 23.6 22.49 24.18 22.36 24.66C22.24 25.11 22.1 25.51 21.96 25.77C21.82 26.03 21.61 26.18 21.44 26.28C21.26 26.37 21.07 26.44 20.89 26.49C20.53 26.58 20.08 26.64 19.61 26.66C18.65 26.72 17.41 26.69 16.09 26.6C13.46 26.43 10.4 26.05 8.39 25.75L7.93 25.68ZM8.52 24.93C7.33 22.17 7.06 12.66 15.17 12.66C24.33 12.66 21.97 24.04 21.23 25.37C20.64 26.43 12.51 25.52 8.52 24.93Z" fill="#7A3C12" fill-opacity="1.000000" fill-rule="evenodd"/>
	<path id="Subtract" d="M8.44 24.73C12.68 25.29 19.04 25.89 19.56 24.95C20.21 23.79 22.1 14.94 16.44 12.74C24.11 13.75 21.93 24.1 21.23 25.37C20.64 26.43 12.51 25.52 8.52 24.93C8.49 24.86 8.46 24.8 8.44 24.73Z" fill="#A75822" fill-opacity="1.000000" fill-rule="evenodd"/>
	<path id="Vector 975 (Stroke)" d="M12.32 14.13C12.52 14.4 12.47 14.79 12.19 15C11.6 15.45 10.2 16.96 9.78 19.15C9.71 19.49 9.38 19.71 9.04 19.65C8.7 19.58 8.48 19.25 8.55 18.91C9.04 16.36 10.65 14.6 11.44 14C11.72 13.79 12.11 13.85 12.32 14.13Z" fill="#CB7941" fill-opacity="1.000000" fill-rule="evenodd"/>
	<path id="Ellipse 1617" d="M14.43 18.27C14.43 19.09 13.9 19.75 13.25 19.75C12.59 19.75 12.06 19.09 12.06 18.27C12.06 17.46 12.59 16.79 13.25 16.79C13.9 16.79 14.43 17.46 14.43 18.27Z" fill="#6B310A" fill-opacity="1.000000" fill-rule="nonzero"/>
	<path id="Ellipse 1618" d="M18.27 18.27C18.27 19.09 17.74 19.75 17.09 19.75C16.44 19.75 15.91 19.09 15.91 18.27C15.91 17.46 16.44 16.79 17.09 16.79C17.74 16.79 18.27 17.46 18.27 18.27Z" fill="#6B310A" fill-opacity="1.000000" fill-rule="nonzero"/>
	<path id="Vector 887" d="M7.95 22.56C10.31 20.31 12.97 21.62 14.01 22.56L18.15 22.56C23.62 20.05 25.1 24.33 22.29 28.47C19.48 32.61 13.12 32.32 10.61 30.99C8.1 29.66 4.99 25.37 7.95 22.56Z" fill="#FFEFB9" fill-opacity="1.000000" fill-rule="nonzero"/>
	<path id="Vector 887 (Stroke)" d="M14.01 22.56L18.15 22.56C23.62 20.05 25.1 24.33 22.29 28.47C19.48 32.61 13.12 32.32 10.61 30.99C8.1 29.66 4.99 25.37 7.95 22.56C10.31 20.31 12.97 21.62 14.01 22.56ZM17.97 21.73L14.31 21.73C13.68 21.23 12.72 20.71 11.6 20.54C10.28 20.34 8.76 20.64 7.37 21.96C6.49 22.79 6.04 23.77 5.93 24.79C5.83 25.79 6.06 26.78 6.47 27.67C7.27 29.43 8.8 30.97 10.22 31.72C11.66 32.49 14.05 32.9 16.44 32.61C18.84 32.31 21.39 31.28 22.98 28.94C23.73 27.83 24.22 26.68 24.41 25.6C24.61 24.53 24.52 23.47 24.05 22.62C23.56 21.74 22.71 21.16 21.61 21.02C20.57 20.88 19.35 21.12 17.97 21.73Z" fill="#CBB56B" fill-opacity="1.000000" fill-rule="evenodd"/>
	<path id="Vector 997 (Stroke)" d="M9.08 22.61C9.25 22.77 9.26 23.03 9.1 23.2C8.77 23.55 8.39 24.26 8.4 25.24C8.42 26.21 8.83 27.46 10.14 28.88C10.3 29.05 10.29 29.31 10.12 29.47C9.95 29.62 9.69 29.61 9.53 29.45C8.1 27.91 7.59 26.46 7.57 25.25C7.55 24.06 8.02 23.13 8.49 22.63C8.65 22.46 8.91 22.45 9.08 22.61Z" fill="#FFF7DD" fill-opacity="1.000000" fill-rule="evenodd"/>
	<path id="Subtract" d="M10.3 30.81C10.41 30.88 10.51 30.93 10.61 30.99C13.12 32.32 19.48 32.61 22.29 28.47C24.27 25.55 24.12 22.55 21.92 21.93C23.28 23.01 23.15 25.56 21.45 28.06C18.83 31.93 13.09 31.92 10.3 30.81ZM13.47 22.14C13.19 21.96 12.86 21.79 12.5 21.64C12.77 21.81 13 21.98 13.18 22.14L13.47 22.14Z" fill="#F1DE9D" fill-opacity="1.000000" fill-rule="evenodd"/>
	<path id="Ellipse 1619" d="M19.46 24.04C19.46 26.08 17.47 28.33 15.02 28.33C12.57 28.33 10.59 26.08 10.59 24.04C10.59 22 12.57 20.64 15.02 20.64C17.47 20.64 19.46 22 19.46 24.04Z" fill="#D94A1D" fill-opacity="1.000000" fill-rule="nonzero"/>
	<path id="Ellipse 1619 (Stroke)" d="M18.75 27.53C17.82 28.48 16.51 29.16 15.02 29.16C13.54 29.16 12.22 28.48 11.29 27.53C10.37 26.59 9.75 25.32 9.75 24.04C9.75 22.72 10.4 21.63 11.39 20.9C12.36 20.18 13.65 19.81 15.02 19.81C16.39 19.81 17.68 20.18 18.65 20.9C19.64 21.63 20.29 22.72 20.29 24.04C20.29 25.32 19.68 26.59 18.75 27.53ZM15.02 28.33C17.47 28.33 19.46 26.08 19.46 24.04C19.46 22 17.47 20.64 15.02 20.64C12.57 20.64 10.59 22 10.59 24.04C10.59 26.08 12.57 28.33 15.02 28.33Z" fill="#953416" fill-opacity="1.000000" fill-rule="evenodd"/>
</svg>
